<svg xmlns="http://www.w3.org/2000/svg" version="1.1" xmlns:xlink="http://www.w3.org/1999/xlink" xmlns:svgjs="http://svgjs.dev/svgjs" viewBox="0 0 1422 800" opacity="0.97"><defs><linearGradient x1="50%" y1="0%" x2="50%" y2="100%" id="ssscribble-grad"><stop stop-color="#c0dedd" stop-opacity="1" offset="0%"></stop><stop stop-color="#000000" stop-opacity="1" offset="100%"></stop></linearGradient></defs><g fill="none" stroke-width="1" stroke="url(#ssscribble-grad)" stroke-linecap="round" stroke-dasharray="3"><path d="M1896.1 250.5C1940.05 268.36 1964.55 287.92 1967.57 309.18 1949.42 330.51 1911.58 353.65 1857.87 378.69 1793.33 403.96 1723.82 431.31 1655.58 460.83 1594.37 490.73 1545.34 522.95 1512.24 557.5 1497.58 592.4 1501.77 629.54 1523.61 668.76 1561.31 707.87 1610.4 748.54 1666.15 790.27 1724.58 830.81 1779.58 871.33 1826.54 910.93 1862.48 947.57 1883.6 981.68 1888.36 1012.11 1876.72 1037.46 1849.06 1057.4 1807.44 1070.86 1754.44 1077.68 1693.66 1077.04 1628.99 1068.53 1501.85 1033.71 1401.95 974.96 1346.56 904.75 1342.12 848.8 1381.31 820.03 1447.33 838.14 1525.67 910.63 1592.15 1030.87 1632.24 1177.2 1640.84 1309.79 1612.56 1395.89 1553.12 1406.42 1468.8 1342.35 1371.13 1227.58 1271.06 1112.33 1172.95 1057.57 1087.12 1094.64 1016.73 1222.76 986.85 1306.56 961.1 1392.5 939.21 1470.64 913.41 1549.24 880.87 1526.14 871.55 1431.69 867.86 1353.72 864.92 1277.93 862.25 1216.36 860.81 1180.1 859.05 1174.89 856.62 1203.19 854.82 1261.96 851.95 1343.29 847.8 1435.49 843.91 1524.27 838.51 1596.17 831.48 1639.48 824.53 1647.28 815.86 1617.91 805.39 1555.87 794.93 1472.49 782.65 1381.06 768.53 1297.57 754.4 1237.74 738.42 1211.63 720.56 1224.59 702.69 1275.04 683.16 1353.02 662.01 1444.29 640.85 1533.71 618.08 1604.74 593.74 1645.43 569.42 1649.62 543.56 1616.23 516.24 1551.27 489.01 1465.27 460.42 1372.22 430.62 1286.71 401.09 1221.4 370.56 1185.82 339.29 1184.09 308.65 1215.76 277.66 1274.22 246.7 1349.3 216.95 1430.14 187.83 1502.96 159.81 1556.87 133.82 1584.79 109.7 1581.72 88.01 1548.32 69.22 1488.78 53.64 1410.83 41.78 1324.35 31.5 1202.02 56.22 1107.34 113.71 1256.23 158.71 1374.58 203.21 1434.31 236.41 1411.46 244.73 1312.21 223.95 1168.9 168.54 1025.14 81.61 913.7 -29.44 859.93 -149.97 863.54 -258.18 915.25 -337.15 988.56 -369.9 1058.42 -351.71 1112.89 -286.43 1132.95 -191.16 1117.25 -142.43 1097.41 -96.88 1070.22 -58.42 1037.08 -31.34 998.32 -17.5 955.93 -18.96 911.34 -36.81 864.12 -70.29 816.76 -117.84 770.25 -176.41 723.47 -242.26 678.79 -310.77 636.64 -376.6 595.52 -434.99 557.36 -481.21 522.17 -511.56 488.37 -523.46 457.39 -515.69 428.97 -489.48 401.76 -446.53 376.68 -390.56 353.42 -327.55 330.95 -262.44 309.82 -201.43 289.75 -151.26 270.06 -116.09 251.06 -99.72 232.55 -104.53 214.15 -129.94 196.04 -173.89 178.18 -232.46 160.31 -299.08 142.91 -367.16 126.03 -431.01 109.26 -483.73 93.21 -520.48 78.11 -538.58 63.38 -535.84 49.97 -512.78 38.18 -471.72 27.18 -416.16 18.26 -351.09 11.78 -281.85 6.52 -214.27 4.11 -153.73 4.83 -87.69 9.66 -63.56 37.12 -104.57 58.5 -148.74 73.31 -200.04 89.33 -253.92 105.59 -306.96 119.22 -353.82 131.04 -390.9 139.64 -416.21 142.62 -426.99 140.05 -422.58 130.57 -370.35 87.62 -271.25 10.62 -148.8 -98.89 -25.99 -223.81 72.46 -350.3 132.72 -453.14 149.41 -507.88 127.22 -503.19 78.84 -438.57 13.86 -341.65 -47.74 -242.92 -93.48 -185.84 -119.43 -205.16 -116.98 -304.66 -87.85 -460.2 -35.48 -614.92 34.7 -712.31 114.98 -709.8 158.38 -671.02 202.11 -612.38 245.46 -541.54 289.08 -469.59 331.34 -405.46 371.85 -359 411.51 -338.68 448.97 -347.97 484.1 -387.48 517.9 -452.99 549.35 -536.67 578.55 -627.58 606.37 -712.75 632.19 -780.52 656.21 -820.71 679.09 -827.51 700.53 -799.66 720.79 -741.25 740.24 -662.64 758.87 -575.67 776.9 -494.9 794.46 -435.16 811.72 -406.15 828.87 -413.85 845.81 -458.05 862.84 -531.75 880.09 -622.95 897.28 -716.01 914.78 -794.9 932.65 -845.37 950.51 -858.36 968.52 -831.36 986.61 -769.75 1004.65 -684.48 1022.66 -590.39 1040.52 -503.46 1058.16 -437.88 1075.44 -404.09 1092.14 -406.64 1108.37 -444.69 1123.73 -510.52 1137.96 -592.4 1151.4 -677.71 1163.35 -751.33 1173.53 -801.61 1182.58 -821.41 1189.52 -806.91 1194.1 -760.57 1197.31 -688.93 1197.93 -602.3 1195.84 -512.72 1192.4 -431.51 1186.29 -369.42 1177.58 -333.39 1168.03 -326.95 1156.34 -349.16 1142.89 -395.19 1129.7 -458.79 1115.73 -529.48 1101.66 -597.36 1080.05 -693.63 1066.8 -696.1 1069.49 -604.15 1095.43 -451.71 1146.15 -297.15 1223.22 -190.89 1320.07 -159.22 1430.75 -200.71 1542.54 -286.47 1671.14 -421.57 1682.62 -404.59 1567.66 -252.62 1482.41 -127.35 1417.93 -11.64 1397.57 81.83 1409.09 119.68 1435.12 150.08 1474.96 173.43 1526.57 190.15 1587.26 200.78 1653.4 206.39 1720.36 206.92 1784.03 204.15 1839.81 199.21 1897.86 187.09 1903.96 161.46 1851.09 151.45 1799.05 145.31 1739.19 141.55 1676.84 140.34 1618.66 139.48 1569.18 141.25 1533.36 145.6 1515.53 150.34 1517.18 157.53 1538.82 167.06 1579.11 176.81 1634.49 188.71 1700.14 202.66 1770.01 216.68 1837.53 232.63 1896.1 250.5Q1896.1 250.5 1896.1 250.5" opacity="0.15"></path><path d="M1838.57 533.46C1880.55 550.33 1905.3 568.92 1910.99 589.14 1897.69 609.31 1866.31 630.99 1819.72 654 1697.45 699.28 1569.61 748.17 1474.47 797.74 1438.27 842.49 1467.25 882.63 1547.24 913.21 1654.63 932.41 1752.97 935.85 1813.9 920.32 1822.79 892.76 1774.33 849.97 1681.09 798.48 1562.25 755.56 1443.41 725.84 1346.41 723.62 1285.24 759.82 1266.77 836.24 1286.56 949.14 1337.92 1078.08 1403.31 1203.83 1467.12 1297.6 1521.28 1335.47 1551.37 1308.64 1553.55 1224.07 1529.03 1117.07 1479.11 1023.84 1410.77 987.57 1328 1034.07 1239.97 1155.71 1153.33 1315.4 1068.32 1451.64 992.26 1512.26 926.53 1469.69 868.54 1348.47 820.62 1206.07 780.77 1118.73 747.06 1140.52 718.06 1266.91 691.3 1439.08 667.36 1566.69 642.83 1581.03 616.1 1471.6 602.99 1389.19 589.06 1303.49 574.2 1227.95 559.39 1175.43 543.57 1153.78 526.7 1167.08 509.83 1213.87 492.11 1285.8 473.6 1371.08 455.13 1457.15 435.97 1529.69 416.22 1577.71 377.22 1577.89 337 1457.36 297.3 1285.4 260.43 1152.95 226.92 1126.54 199.41 1210.24 172.05 1419.64 182.34 1391.95 221.46 1162.42 252.71 1044.04 286.95 1007.62 317.72 1053.9 334.05 1158.32 333.75 1270.12 309.99 1344.82 259.54 1358.3 183.11 1301.55 84.73 1192.94 -23.29 1056.78 -130.8 927.63 -222 829.67 -281.62 774.11 -300.73 764.6 -274.69 790.38 -212.83 843.07 -126.68 901.74 -37.93 952.02 25.19 991.37 46.16 1007.28 12.54 1000.17 -73.11 974.16 -193.42 930.93 -319.85 877.24 -418.89 814 -463.98 748.9 -440.8 686.45 -358.67 621.85 -240.77 563.52 -125.17 512.95 -81.92 487.62 -53.06 464.34 -41.46 443.18 -48.83 422.01 -74.44 402.97 -116.42 386.09 -171.45 369.22 -233.92 354.73 -298.32 342.57 -386.28 325.5 -460.48 294.69 -337.92 292.44 -209.21 291.26 -90.05 293.85 -11.91 295.88 6.93 288.36 -32.99 271.66 -114.49 239.21 -215.34 187.86 -302.8 114.93 -353.59 20.18 -356.89 -85.49 -308.82 -197.94 -220.61 -302.64 -107.64 -380.43 8.48 -421.15 109.27 -413.89 183.12 -364.21 221.68 -281.39 226.44 -189.45 200.49 -125.06 155.83 -110.41 104.36 -163.71 51.05 -278.25 9.89 -427.61 -13.68 -567.18 -20.47 -648.6 -6.28 -644.9 25.87 -556.62 73.23 -427.62 131.83 -314.25 196.57 -276.7 267.6 -343.37 338.37 -491.43 405.94 -656.82 473.91 -759.58 536.32 -749.31 592.56 -629.89 647.77 -470.96 697.11 -360.33 740.88 -367.16 762.59 -418.5 783.07 -493.55 802.31 -581.31 821.53 -668.28 839.58 -741.07 856.45 -787.88 873.32 -801.2 888.81 -778.71 902.92 -724.52 916.99 -647.3 929.62 -559.08 940.76 -473.33 962.72 -357.2 978.14 -361.57 986.56 -476.15 993.95 -635.29 994.05 -745.59 987.29 -748.37 980.94 -642.01 970.09 -477.64 957.54 -331.68 951.27 -264.36 949.69 -297.46 957.74 -403.6 980.98 -533.19 1020.57 -622.15 1079.36 -633.52 1154.94 -562.14 1246.33 -431.35 1347.91 -284.51 1447.66 -160.09 1538.65 -91.13 1608.82 -84.76 1648.29 -134.3 1651.84 -213.72 1617.84 -294.38 1556.89 -359.01 1478.33 -385.21 1400.5 -369.42 1347.41 -315.21 1332.04 -231.71 1365.44 -133.39 1446.32 -26.5 1561.28 73.3 1686.86 159.34 1793.1 233.34 1855 289.83 1855.19 331.86 1796.08 362.5 1693.03 384.87 1577.35 403.75 1489.37 417.82 1456.18 433.68 1492.67 454.12 1535.58 463.97 1590.85 475.39 1654.13 488.54 1720.21 501.64 1783.54 516.59 1838.57 533.46Q1838.57 533.46 1838.57 533.46" opacity="0.69"></path><path d="M1780.16 602.66C1845.96 634.42 1845.53 662.03 1780.98 684.74 1671.99 706.39 1549.11 721.21 1445.51 727.53 1386.89 730.83 1385.31 723.93 1436.16 706.6 1525.38 687.75 1624.74 661.92 1707.76 633.68 1756.7 614.92 1756.74 605.68 1708.76 614.62 1621.96 648.75 1513.03 710.23 1401.67 799.89 1303.43 907.01 1233.23 1024.02 1196.91 1133.62 1195.71 1214.07 1223.26 1252.79 1269.24 1238.9 1327.38 1179.62 1382.57 1087.93 1425.81 991.76 1455.16 929.24 1462.85 922.86 1449.31 986.9 1417.06 1108.9 1368.25 1257.22 1308.15 1384.75 1238.32 1446.57 1165.26 1421.43 1093.08 1318.29 1019.91 1185.79 951.85 1080.32 890.08 1055.91 830.64 1132.1 777.69 1280.32 730.62 1436.19 685.47 1526.2 644.8 1506.64 607.73 1385.1 571.27 1227.19 537.29 1113.88 505.53 1109.27 473.77 1219.33 444.99 1380.55 419.6 1505.69 394.81 1531.98 374.54 1444.55 359.8 1289.25 346.97 1139.66 341.1 1064.51 342.92 1091.05 347.07 1202.29 358.73 1339.48 376.87 1438.55 394.01 1458.46 413.41 1387.34 431.1 1254.07 439.05 1103.85 437.24 988.32 420.55 938.66 385.14 962.89 330.19 1042.26 255.4 1142.29 166.72 1232.98 67.93 1280.32 -31.83 1272.29 -119.43 1210.83 -186.61 1109.49 -222.91 990.66 -224.09 870.71 -189.25 771.5 -124.07 702.55 -45.78 665.96 32.36 660.14 90.84 676.08 110.5 710.27 84.58 748.73 12.36 783.07 -93.92 815.48 -213.96 835.18 -321.1 841.5 -389.87 840.19 -403.46 827.15 -357.1 805.42 -265.75 779 -152.22 748.02 -49.5 715.2 8.75 681.14 5.96 647.68 -59.83 615.93 -170.74 584.17 -290.24 554.87 -382.66 527.07 -423.83 498.04 -400.24 468.07 -320.01 434.6 -204.81 396.44 -84.48 350.66 11.81 294.36 63.24 230.43 61.41 154.33 12.59 66.89 -70.35 -22.47 -161.88 -114.6 -239.05 -200.94 -287.21 -269.03 -292.39 -313.84 -254.41 -326.2 -179.67 -306.2 -80.75 -254.27 26.35 -179.75 129.5 -106.36 214.29 -48.62 273.67 -28.77 304.94 -62.34 309.27 -149.32 292.68 -277.5 258.18 -415.02 216.97 -529.76 176.8 -587.07 138.29 -570.5 111.09 -485.75 97.41 -363.86 94.49 -258.91 105.76 -213.65 128.89 -256.82 161.32 -379.15 201.54 -537.01 246.28 -666.19 295.73 -710.67 345.93 -650.7 394.61 -513.39 444.81 -370.34 491.6 -292.23 533.86 -324.77 576.37 -456.17 613.77 -620.61 645.53 -730.69 677.29 -726.12 702.65 -609.61 721.99 -445.42 741.59 -317.58 755.75 -288.65 765.44 -366.38 780.96 -576.52 814.41 -595.97 845.1 -377.12 877 -250.69 919.4 -199.66 974.47 -233.13 1040.29 -332.33 1118.1 -449.88 1205.56 -538.82 1294.68 -569.81 1383.16 -528.09 1463.09 -428.07 1525.12 -294.41 1564.4 -163.08 1574.75 -62.17 1556.99 -6.64 1511.83 -1.75 1446.18 -36.75 1376.57 -100.91 1313.01 -170.65 1271.33 -228.83 1266.42 -269.56 1302.37 -280.42 1378.86 -262.42 1484.36 -219.23 1601.77 -156.33 1707.99 -82.53 1780.09 0.73 1802.6 82.96 1769.09 159.43 1690.71 234.38 1585.54 300.11 1482.59 356.7 1414.62 410.27 1400.38 456.41 1447.83 496.61 1546.53 535.75 1669.25 570.91 1780.16 602.66Q1780.16 602.66 1780.16 602.66" opacity="0.91"></path><path d="M1722.72 347.58C1786.17 377.35 1791.67 398.98 1739.59 413 1644.32 427.39 1529.46 435.06 1422.74 437.59 1347.68 442.66 1319.32 445.92 1339.92 450.98 1403.44 464.23 1490.52 485.66 1579.52 520.01 1653.66 568.82 1693.77 634.61 1692.53 717.8 1650.9 810.21 1575.11 910.35 1478.46 1008.49 1373.46 1089.58 1275.95 1146.26 1197.06 1167.32 1142.95 1150.57 1117.31 1097.07 1117.56 1017.08 1141.4 935.5 1179.59 869.76 1223.7 843.62 1271.21 873.26 1311.2 958.17 1339.24 1084.55 1356.56 1219.75 1358.05 1330.26 1344.93 1382.07 1319.78 1360.15 1283.47 1271.44 1239.49 1147.54 1188.46 1040.79 1134.45 992.53 1080.25 1029.78 1023.6 1144.38 969.5 1295.55 919.33 1423.42 868.82 1474.36 823.04 1425.86 782.49 1297.55 741.98 1151 706.69 1052.45 676.92 1051.79 647.15 1152.5 623.6 1302.71 606.12 1430.25 588.68 1478.8 577.32 1424.75 571.69 1294.32 566.61 1103.43 553.43 1388.47 522.69 1327.39 486.93 1205.62 437.98 1066.33 374.78 948.64 300.85 879.35 216.55 871.59 126.45 916.8 39.74 999.37 -39.33 1088.7 -102.19 1159.6 -141.46 1198.71 -152.98 1193.07 -134.02 1146.12 -90.29 1065.03 -25.92 964.43 48.07 859.59 113.72 757.75 160.66 672.65 175.74 608.37 150.41 564.15 86.05 540.17 -9.91 531.11 -120.73 535.76 -227.19 546.24 -307.51 557.18 -344.91 572.06 -330.77 581.79 -267.2 584.33 -171.97 586.66 -65.87 580.79 23.49 566.68 69.68 552.18 61.17 530.02 -2.27 500.25 -105.5 470.48 -218.18 433.81 -310.51 390.32 -361.46 346.44 -356.35 295.18 -297.93 236.7 -200.53 178.02 -86.51 113.14 19.05 44.24 95.58 -20.71 129.36 -84.06 118.14 -140.31 66.27 -182.85 -9.92 -209.19 -91.95 -213.87 -165.92 -198.47 -213.48 -160.83 -226.5 -104.89 -204 -45.92 -147.94 10.35 -67.57 48.86 28.39 53.22 126.84 17.99 217.36 -60.12 294.39 -170.04 350.95 -296.52 386.1 -414.25 400.14 -494.63 396.71 -520.03 381.16 -481.75 354.41 -395.08 325.03 -284.63 297.71 -189.41 270.5 -149.92 250.95 -184.06 240.27 -289.63 234.52 -433.72 238.01 -568.94 249.53 -644.63 265.5 -632.21 287.38 -535.95 313.36 -395.65 341.62 -276.7 371.86 -231.39 402.71 -285.79 434.14 -419.21 465.04 -572.44 494.81 -673.17 524.58 -672.55 552.53 -571 579.08 -418.57 606.22 -284.35 633.12 -227.06 661.01 -266.49 691.17 -382.86 724.44 -519.82 762.49 -617.63 804.99 -638.1 854.37 -570.48 911.71 -441.91 973.99 -296.19 1043.85 -183.21 1119.94 -134.71 1196.15 -159.95 1272.99 -241.6 1345.62 -345.8 1407.06 -441.19 1454.8 -492.96 1483.35 -487.45 1490.8 -426.17 1475.13 -323.28 1437.12 -202.68 1385.62 -83.67 1324.32 10.71 1263.51 70.06 1218.29 91.61 1195.38 79.25 1203.88 44.05 1247.91 -8.18 1324.32 -60.87 1424.83 -104.4 1533.42 -138.7 1633.88 -154.2 1707.57 -151.42 1740.62 -134.18 1726.22 -102.74 1666.49 -61.97 1577.72 -13.03 1477.92 38.85 1392.01 89.93 1345.08 143.55 1348.74 193.02 1405.57 236.62 1503.8 280.59 1619.49 317.8 1722.72 347.58Q1722.72 347.58 1722.72 347.58" opacity="0.49"></path><path d="M1665.28 175.84C1726.12 203.62 1736.76 231.46 1696.38 259.97 1615.18 289.44 1510.73 321.41 1405.43 357.65 1319.68 397.2 1269.31 443.74 1261.04 498.95 1294.86 559.02 1359.7 628.38 1440.08 706.01 1522.7 784.05 1588.41 864.17 1625.78 940.26 1630.44 1002.81 1599.64 1048.78 1539.06 1070.76 1456.09 1066.78 1362.15 1035.01 1268.53 978.5 1182.56 911.94 1113.45 843.14 1064.92 788.76 1038.18 767.73 1032.04 787.54 1042.28 853.21 1067.38 955.75 1099.43 1079.53 1132.91 1199.13 1168.19 1285.18 1197.25 1318.13 1217.71 1287.35 1232.38 1204.81 1236.58 1093.27 1231.11 989.8 1219.05 934.81 1199.21 949.04 1173.65 1035.31 1143.88 1168.13 1111.04 1305.01 1077.01 1397.13 1041.17 1410.59 1006 1339.18 972.68 1209.22 938.94 1075.78 907.91 991.49 880.12 994.31 852.34 1085.92 828.45 1224.5 808.07 1351.45 787.26 1417.89 769.1 1395.67 752.54 1295.64 734.17 1155.21 715.53 1025.79 694.89 950.6 670.04 951.58 640.52 1022.12 604.43 1131.76 561.75 1244.51 510.59 1318.45 450.29 1331.13 384.21 1279.47 310.86 1176.91 232.75 1051.38 156.44 929.89 83.04 840.48 18.17 796.96 -31.81 802.67 -63.83 848.44 -73.5 916.96 -61.39 995.09 -26.97 1060.39 26.18 1100.6 87 1112.38 149.99 1091.14 204.03 1042.45 235.68 971.13 239.54 887.32 210.1 800.28 147.95 711.79 59.59 631.85 -43.38 563.38 -144.14 503.67 -227.06 456.38 -276.56 419.32 -283.97 389.9 -246.87 366.67 -171.85 346.54 -77.27 329.91 18.99 312.81 94.7 293.23 129.58 274.46 116.12 251.55 55.28 223.76 -40.32 195.98 -145.78 163.97 -236.61 128.62 -294.98 94.08 -306.17 57.85 -269.08 22.08 -192.25 -10.19 -91.05 -38.44 14.47 -59.43 106.09 -72.79 168.15 -74.86 192.91 -63.31 178.36 -42.99 131.82 -10.02 65.27 32.84 -11.09 74.26 -79.9 113.78 -129.65 142.28 -155.25 148.15 -150.29 128.04 -116.5 76.52 -57.88 -3.44 18.64 -106.89 104.31 -221.44 193.77 -326.38 277.63 -406.84 350.55 -445.38 411 -434.68 455.49 -376.22 484.89 -283.66 501.77 -149.25 480.42 -170.27 460.2 -351.67 439.65 -526.01 425.16 -469.45 433.61 -281.66 442.27 -192.35 456.34 -178.27 475.35 -250.19 494.72 -382.62 518.38 -524.02 546.17 -615.65 573.96 -618.51 605.21 -531.42 639.97 -392.5 675.08 -257.03 714.34 -177.41 758.08 -180.13 802.83 -261.51 852.7 -385.12 907.65 -502.27 963.41 -572.87 1023.59 -569.02 1086.88 -493.68 1148.19 -369.84 1209.28 -235.66 1267.02 -128.33 1316.65 -72.75 1357.27 -78.76 1385.05 -135.88 1398.48 -226.55 1395.35 -319.39 1374.66 -389.12 1341.49 -421.99 1295.79 -407.11 1242.75 -349.66 1193.49 -258.87 1151.65 -151.92 1125.84 -45.59 1124.87 50.67 1150.84 123.79 1205.38 170.6 1284.06 191.45 1379.79 189.77 1480.95 172.85 1572.28 142.38 1641.47 109.22 1676.39 79.33 1671.99 49.86 1628.02 29.84 1552.09 20.18 1462.24 15.4 1374.31 20.33 1308.2 33.18 1281.83 49.35 1301.2 70.7 1365.07 95.36 1461.4 120.97 1569.67 148.05 1665.28 175.84Q1665.28 175.84 1665.28 175.84" opacity="0.50"></path><path d="M1608.56 362.43C1666.18 388.24 1680.73 420.62 1650.75 459.28 1583.26 498.01 1490.87 543 1391.02 593.63 1300.56 643.66 1234.42 697.98 1201.57 754.55 1205.85 807.15 1242.91 857.69 1303.45 902.08 1378.61 935.81 1452.43 957.07 1512.91 961.83 1553.64 951.26 1566.18 922.73 1549.79 877.78 1507.03 826.76 1442.59 771.57 1364.35 722.12 1278.15 692.62 1193.3 688.2 1116.33 716.78 1050.12 779.21 999.42 871.35 964.72 982.39 945.77 1092.37 940.56 1184.84 945.71 1240.38 960.98 1247.4 980.53 1203.84 1000.9 1118.97 1033.69 973.13 1073.44 914.24 1076.25 1062.87 1069.46 1247.77 1027.98 1291.67 997.32 1120.93 975.48 1001.91 951.5 931.24 925.7 937.1 899.9 1019.89 872.88 1146.41 844.46 1269.98 815.62 1349.66 784.58 1356.05 750.67 1289.06 715.31 1170.91 675.89 1039.5 631.68 934.26 585.15 883.37 533.15 897.73 475.73 966.74 416.78 1069.51 353.72 1171.3 288.29 1243.27 225.56 1268.92 164.88 1239.32 109.84 1163.17 64.93 1055.5 31.73 939.62 13.76 836.7 11.54 760.41 26.82 721.59 59.21 719.61 102.36 751.03 155.01 803.39 210.74 863.51 258.51 925.19 294.22 973.6 310.12 1002.84 299.64 1013.33 262.1 1001.44 198.36 970.82 114.86 924.2 20.02 866.76 -74.05 804.1 -153.5 735.73 -207.36 669.02 -226.2 606.85 -207.91 545.13 -154.09 490.02 -73.59 441.78 16.29 395.06 101.09 354.45 163.48 319.33 188.35 284.8 171.19 254.72 113.57 228.91 25.73 203.11 -72.15 182.2 -160.34 166.48 -224.1 151.34 -249.4 142.43 -232.64 140.48 -177.96 140.07 -94.67 147.38 2.44 162.28 98.67 177.65 179.05 198.53 233.25 222.18 255.41 240.13 245.57 253.97 209.1 258.22 151.41 246.47 85.37 217.23 21.83 166.98 -33.36 97.97 -69.57 11.16 -83.03 -87.43 -73.9 -184.47 -41.82 -272.26 8.91 -337.5 74.81 -369.34 149.37 -362.72 226.62 -316.9 304.5 -244.45 376.52 -157.29 439.95 -76.48 495.26 -27.21 539.77 -22.61 574.28 -71.27 599.87 -166.26 617.74 -289.08 630.17 -410.76 636.84 -498.68 641.32 -529.84 645.64 -493.51 647.41 -402.83 651.27 -283.74 658.4 -175.55 664.79 -118.51 675.45 -132.5 690.93 -217.28 706.3 -345.96 726.76 -475.09 752.56 -557.88 778.36 -563.74 808.9 -490.46 843.79 -366.33 878.56 -234.32 917.42 -139.06 959.7 -109.32 1001.22 -152.33 1045.17 -249.1 1090.21 -364.89 1132.7 -465.26 1174.05 -515.88 1212.1 -503.13 1244.37 -431.06 1270.11 -318.82 1286.88 -195.57 1294.74 -87.69 1291.36 -19.12 1275.82 0.71 1252.16 -27.96 1218.54 -91.69 1177.57 -171.2 1137.24 -251.78 1098.12 -311.71 1066.04 -340.33 1049.11 -335.09 1049.23 -295.24 1070.57 -228.82 1114.49 -142.45 1179.44 -48.86 1261.5 41.92 1351.91 126.63 1442.95 196.29 1523.65 249.23 1583.14 286.84 1614.01 309.18 1610.76 320.16 1575.47 320.48 1511.89 315.77 1430.22 309.98 1347.66 300.23 1276.69 293.7 1231.96 292.34 1225.16 290.37 1258.06 294.9 1326.93 306.43 1420.22 318.03 1520.72 336.63 1608.56 362.43Q1608.56 362.43 1608.56 362.43" opacity="0.36"></path><path d="M1551.07 608.79C1605.64 632.61 1623.78 658.39 1603.66 685.46 1549.84 711.86 1470.85 738.2 1379.76 762.89 1289.76 784.91 1213.95 802.73 1161.82 814.16 1139.25 820.25 1146.79 817.39 1180.41 804.16 1235.6 785.08 1301.09 756.3 1366.84 719.55 1426.87 683.4 1470.63 646.67 1493.45 615.35 1494.65 598.78 1472.68 598.87 1430.76 621.29 1372.22 667.87 1302.7 738.05 1228.12 827.94 1151.37 926.01 1078.94 1023.79 1014.26 1107.29 957.79 1162.41 912.57 1181.14 878.35 1158.32 854.43 1100.5 839.75 1016.7 832.1 924.99 831.65 850.68 834.71 810.15 839.03 818.11 846.65 877.58 852.82 978.15 856.18 1098.47 860.46 1245.03 847.08 1201.11 828.36 1032.9 814.18 929.1 795.22 871.23 771.41 879.58 747.59 953.8 719.47 1067.94 687.27 1185.69 654.98 1273.93 618.49 1304.54 578.01 1270.41 537.5 1181.99 493.22 1063.72 445.81 947.04 399.24 859.34 350.77 820.59 301.88 835.22 256.28 897.31 212.97 986.41 174.31 1078.67 142.86 1155.62 119.57 1196.73 106.78 1194.77 104.29 1150.97 114.06 1073.14 136.45 975.88 167.05 871.57 206.78 777.06 252.32 702.94 295.68 654.07 335.47 633.71 365.89 638.27 379.69 665.1 375.14 704.81 349.13 749.17 301.51 796.7 234.67 836.87 153.4 866 66.41 886.41 -18.49 892.99 -91.13 887.16 -142.21 871.91 -165.25 847.46 -156.12 816.92 -117.44 780.97 -53 742.82 27.79 704.91 109.7 665.02 181.68 627.66 230.78 594.19 246.2 560.33 225.64 531.19 171.07 507.38 90.68 483.56 0.61 465.62 -83.51 453.09 -168.03 435.99 -122.49 416.79 -9.04 406.55 81.75 393.88 168.73 376.03 241.42 350.01 292.57 314.57 317.6 267.74 316.66 208.24 290.96 140 247.55 61.87 194.1 -22.36 134.96 -103.43 80.64 -178.59 37.25 -239.51 6.39 -278.16 -6.35 -290.51 -0.81 -272.87 21.4 -229.97 59.12 -165.19 108.6 -89 167.98 -19.86 232.41 31.44 298.11 50.46 365.09 27.63 428.47 -36.54 486.54 -134.72 541 -248.23 588.83 -356.74 630.27 -436.3 667.32 -468.4 699.05 -445.18 726.62 -370.92 751.12 -267.69 773.2 -160.79 794.06 -81.55 813.46 -56.6 833.04 -94.2 853.57 -187.12 873.73 -309.58 895.57 -426.14 919.39 -500.38 943.21 -508.76 968.44 -448.5 994.66 -340 1020.52 -215.57 1046.66 -111.55 1072.17 -55.64 1096.24 -61.25 1118.27 -122.79 1136.98 -219.44 1157.92 -368.86 1163.47 -413.97 1144.34 -288.45 1125.37 -175.5 1099.96 -68.61 1069.68 14 1040.69 61.63 1011.71 69.42 986.41 42.43 971 -12.94 965.99 -80.98 974.99 -147.84 1000.67 -206.52 1043.15 -244 1102.13 -256.51 1173.64 -244.85 1254.48 -209.49 1338.42 -156.21 1416.67 -88.18 1483.16 -13.48 1530.1 61.77 1552.29 137.62 1546.67 206.65 1512.98 267 1457.75 321.51 1386.27 366.67 1308.91 403.79 1240.22 435.57 1188.96 461.88 1165 484.78 1175.07 505 1218.17 524.37 1289.36 544.36 1378.19 563.68 1470.68 584.98 1551.07 608.79Q1551.07 608.79 1551.07 608.79" opacity="0.20"></path><path d="M1493.6 521.28C1544.86 543.11 1565.76 559.69 1554.35 570.96 1513.49 581.95 1448.5 587.15 1368.74 586.4 1284.07 585.05 1205.08 577.63 1140.64 564.63 1097.04 552.13 1077.8 535.78 1082.7 517.63 1110.65 504.14 1155.25 493.44 1209.66 489.23 1269.71 496.39 1325.78 515.61 1371.98 549.93 1406.38 599.07 1423.48 663.61 1422.64 741.52 1405.12 825.11 1371.67 911.09 1325.64 991.04 1269.12 1054.47 1206.59 1095.71 1141.88 1107.79 1075.72 1089.83 1012.79 1042.59 955.09 972.43 901.73 894.67 855.5 820.1 816.34 764.59 782.88 743.45 755.61 762.24 733.34 822.22 715.48 914.23 700.7 1023.11 687.64 1127.63 677.04 1205.18 666.46 1239.31 654.84 1220.68 644.23 1154.71 631.53 1055 616.1 945.89 600.91 857.68 582.53 811.71 560.7 822.09 538.86 888.06 514.09 989.72 486.76 1099.52 459.66 1191.68 430.46 1241.09 399.9 1237.03 370.34 1181.77 340.48 1088.17 311.46 978.1 284.91 873.7 260.91 796.56 240.94 759.36 225.38 766.72 215.75 812.85 213.36 884.54 216.68 969.08 228.1 1046.29 247.81 1102.18 271.87 1129.92 302.29 1122.98 337.22 1084.13 370.69 1018.47 403.24 935.67 431.15 846.48 448.56 757.38 454.76 679.11 446.5 616.87 421.56 571.97 380.15 546.46 323.02 537.84 254.09 544.92 176.86 562.38 97.34 585.35 23.46 614.55 -38.93 642.44 -82.88 666.13 -103.78 689.1 -98.75 705.09 -67.48 713.73 -15.36 719.68 53.19 718.73 129.44 711.81 200.77 703.04 259.34 689.78 295.88 673.02 302.97 655.7 279.86 635.94 228.6 614.11 155.58 592.27 73.51 568.89 -5.5 543.68 -72.53 517.91 -116.47 489.27 -132.12 456.86 -118.93 422.61 -77.92 383.11 -15.09 337.56 62.31 289.3 145.11 234.54 224.29 173.73 292.97 112.21 344.61 47.42 376.06 -17.61 385.81 -76.44 375.64 -128.69 349.27 -169.43 308.83 -194.46 261.79 -201.44 213.77 -187.77 166.44 -156.77 127.09 -108.49 98.63 -48 80.51 12.57 76.11 68.12 84.74 107.99 104.76 121.07 135.41 103.7 174.13 53.22 220.12 -25.38 270.17 -123.75 321.85 -227.77 376.1 -318.93 429.06 -382.85 479.39 -406.22 529.44 -385.01 575.74 -322.09 617.98 -230.01 659.1 -132.26 696.32 -49.08 729.83 -2.25 762.54 -6.62 792.16 -62.45 818.95 -158.93 845.5 -273.04 869.68 -376.92 891.51 -442.89 913.35 -453.27 932.31 -405.09 948.29 -312.56 964.03 -199.13 976.31 -92.99 984.77 -18.6 992.44 8.44 995.67 -15.25 994.15 -80.48 991.53 -172.68 984 -267.35 971.79 -343.36 959.29 -387.33 943.23 -388.33 924.83 -347.71 908.99 -272.73 893.75 -177 881.41 -76.52 876.34 16.37 878.18 87.92 889.4 131.65 912.01 145.35 946.39 131.36 993.12 96.55 1050.2 45.22 1116.8 -10.77 1189.91 -63.13 1263.71 -109.8 1335.06 -141.84 1398.23 -157.34 1447.33 -158.01 1478.66 -142.43 1488.38 -113.73 1476.41 -73.68 1442.56 -26.08 1389.88 25.24 1326.71 81.22 1258.12 136.35 1193.02 188.46 1142.52 241.07 1111.94 288.93 1107.17 331.45 1131.25 373.38 1181.61 410.08 1252.95 441.62 1336.3 472.87 1420.58 499.45 1493.6 521.28Q1493.6 521.28 1493.6 521.28" opacity="0.30"></path><path d="M1436.1 239.8C1483.82 259.64 1506.67 275.55 1502.78 287.93 1473.87 300.68 1422.89 310.65 1356.2 318.85 1280.76 328.68 1204.56 338.44 1135.05 349.79 1077.92 365.06 1037.91 384.47 1017.1 409.94 1016.51 441.82 1033.84 481.88 1065.48 531.09 1109.39 586.62 1158.67 650.2 1208.21 720.01 1256.29 789.9 1296.34 859.44 1325.59 923.53 1346.87 993.91 1306.92 1012.33 1253.08 951.91 1206.97 892.45 1156.51 825.13 1104.12 759.76 1049.39 709.74 995.89 681.48 945.02 682.89 895.12 717.41 849.18 782.41 807.49 870.85 767.87 969.04 732.36 1063.06 700.59 1136.6 670.57 1176.21 643.47 1174.32 618.73 1129.83 594.92 1052.82 572.64 956.41 551.46 860.49 530.53 787.78 510.21 752.67 490.36 764.59 470.51 822.63 451.61 911.86 433.88 1011.95 408.5 1134.89 369.44 1133.51 358.62 1013.42 354.38 912.8 354.63 818.6 359.86 745.44 367.15 702.76 379.55 695.13 396.86 719.81 415.14 772.11 437 839.68 461.14 910.43 482.94 976.77 503.86 1026.13 521.57 1052.85 531.86 1055.89 534.91 1033.82 528.39 990.68 510.25 930.03 480.34 858.88 438.2 783.89 385.5 707.51 323.36 637.13 254.61 575.98 184.41 523.59 115.89 483.09 54.28 453.61 -11.81 428.28 -22.72 419.81 36.75 424.63 95.06 430.47 161.78 433.98 229.56 433.91 311.16 432.54 346.25 405.4 286.1 378.41 220.36 358.57 146.42 333.63 73.39 303.94 7.84 274.33 -40.96 240.19 -68.07 202.16 -72.13 164.8 -51.87 124.52 -10.24 82.67 48.4 43.42 118.26 5 192.52 -30.26 265.76 -59.35 331.49 -81.66 385.28 -94.54 424.47 -97.66 447.23 -88.8 454.01 -67.01 445.07 -36.44 423.85 4.37 393.92 52.36 356.18 98.95 316.58 142.85 278.58 177.5 241.92 194.63 211.86 191.93 189.85 165.46 174.38 115.32 168.31 43.87 171.07 -43.12 180.99 -134.54 198.4 -221.35 221.74 -291.36 250.26 -333.76 282.48 -342.31 316.8 -314.19 353.89 -255.59 391.25 -174.31 427.73 -84.9 465.29 -7.11 500.93 45.63 533.97 60.56 567.3 31.77 597.63 -36.36 624.6 -132.06 651.6 -236.07 675.15 -327.32 695 -385.38 714.85 -397.33 730.52 -360.23 742.18 -283.6 753.88 -183.76 761.64 -81.5 765.75 3.17 770.14 55.33 771.27 66.71 769.72 38.31 769.25 -24.01 767.14 -105.11 764.44 -188.74 765.18 -287.06 786.27 -288.27 814.05 -193.84 841.87 -107.8 877.49 -18.38 921.35 64.5 971.75 135.15 1029.07 186.36 1091.74 216.41 1155.75 225.24 1220.13 215.51 1281.31 192.02 1334.67 156.33 1377.99 116.34 1407.61 77.03 1421.5 37.82 1417.98 5.87 1396.5 -17.07 1360.42 -33.68 1310.86 -40.2 1252.17 -37.68 1192.46 -28.77 1135.53 -12.92 1088.07 7.8 1057.63 32.47 1046.84 59.47 1058.55 87.07 1093.31 116.31 1147.95 144.43 1217.43 170.34 1294.37 196.62 1370.32 219.94 1436.07 239.79Q1436.1 239.8 1436.1 239.8" opacity="0.34"></path><path d="M1378.6 214.51C1422.54 232.37 1446.51 252.77 1448.88 275.77 1430.63 299.09 1393.08 325.61 1340.28 355.69 1276.88 386.77 1208.42 422.18 1140.63 462.19 1078.03 503.53 1025.33 549.54 985.56 599.78 960.61 650.05 950.95 702.85 955.57 756.31 974.05 805.84 1002.68 852.04 1038.12 891.79 1123.81 940.86 1199.81 938.54 1248.26 874.95 1268.21 778.34 1251.1 673.22 1205.88 612.39 1174.92 615 1140.18 641.74 1103.21 692.72 1063.41 763.3 1023.28 847.49 983.94 935.84 943.67 1016.27 905.25 1079.21 869.28 1114.92 833.28 1118.18 800.08 1087.44 769.89 1026.38 739.87 946.36 712.83 858.29 688.86 777.27 664.95 719.52 644 694.13 626.14 707.09 608.27 757.54 593.93 834.54 583.03 923.6 572.21 1011.18 564.98 1080.41 561.3 1120.43 557.8 1126.57 557.92 1097.25 561.51 1038.22 565.06 958.02 571.76 868.74 581.08 782.66 594.42 683.35 620.64 644.78 627.2 699.92 617.36 819.64 583.18 925.14 516.41 975.4 421.13 962.24 302.77 888.23 179.88 782.35 125.84 721.56 79.9 661.5 45.49 604.6 24.94 549.2 20.04 499.46 31.9 455.79 58.58 415.66 99.64 381.34 152.17 352.05 209.88 325.67 269.8 302.88 326.31 282.64 372.21 263.89 404.51 246.3 419.22 229.1 413.32 212.29 387.54 195.1 343.6 177.23 285.03 159.37 219.28 141.26 153 123.28 90.71 105.69 39.9 88.99 4.85 74.05 -12.92 60.61 -10.91 50.3 9.98 44.28 47.47 41.16 98.64 43.75 159.03 52.93 224.93 65.64 291.24 85.19 353.71 111.26 409.74 138.83 455.9 170.42 490.66 203.68 523.06 254.49 511.17 277.22 471.14 243.55 410.14 146.46 353.04 -1.38 312.16 -158.3 290.32 -240.69 280.79 -249.93 291.11 -170.99 302.35 -97.99 316.91 -20.35 333.86 49.76 352.57 98.71 372.57 119.5 393.1 106.46 414.42 59.56 435.48 -14.93 455.76 -106.04 476.23 -198.63 495.53 -277.44 513.4 -327.89 531.26 -340.85 547.26 -313.65 561.58 -252.37 576.1 -167.82 589.32 -74.48 601.69 12.41 621.39 100.01 665.67 75.18 693.97 -17.81 716.57 -93.07 742.84 -162.7 773.46 -217.34 807.68 -252.39 846.78 -261.82 890.83 -245.83 986.78 -147.8 1095.17 -0.33 1203 143.1 1289.85 253.52 1344.1 307.13 1348.9 313.12 1332.74 300.89 1303.89 283.17 1263.79 262.97 1217.25 238.84 1165.51 216.23 1112.7 196.91 1065.4 177.64 1025.86 163.34 998.45 154.42 987.63 146.82 994.15 144.5 1018.82 147.1 1060.76 150.71 1116.84 158.48 1182.66 169.95 1252.47 181.74 1320.03 196.64 1378.6 214.51Q1378.6 214.51 1378.6 214.51" opacity="0.30"></path><path d="M1321.1 485.86C1386.31 517.61 1383.98 564.2 1319.31 622.1 1212.13 677.25 1090.79 737.18 984.79 791.91 913.1 830.39 886.19 846.75 899.63 829.5 948.06 785.9 1010.94 712.48 1071.43 625.88 1127.29 563.2 1161.39 541.5 1172.01 585.92 1165.59 694.86 1140.16 844.41 1102.93 984.44 1056.86 1057.97 1007.95 1032.92 961.9 913.91 914.03 764.08 872.95 654.2 841.19 649.59 809.43 759.65 788.51 917.33 776.49 1037.52 762.64 1066.66 753.79 988.84 744.82 845.97 727.01 693.94 700.15 590.96 657.62 561.49 598.06 604.61 518.37 689.64 420.89 778.68 318.77 854.88 218.24 889.15 136.75 881.18 90.25 838.94 88.67 771.98 137.09 696.83 219.81 612.69 323.07 536.39 418 473.8 470.42 411.61 466.31 364.06 401.1 332.3 290.48 300.55 173.89 286.08 85.98 288.38 45.1 291.09 65.35 309.62 136.99 338.72 242.95 358.84 359.03 373.51 462.64 366.8 542.09 325.83 587.67 245.96 602.21 128.14 588.21 -2.51 558.7 -125.19 525.47 -201.37 486.25 -204.97 456.81 -130.47 440.93 -1.71 428.84 117.87 430.63 177.61 444.42 136.21 460.21 3.77 484.64 -160.34 516.4 -270.4 548.16 -265.79 585.73 -149.48 629.82 12.6 675.92 143.87 731.9 186.99 799.02 136.74 869.93 19.98 951.67 -101.07 1039.83 -176.95 1122.01 -188.31 1197.12 -128.96 1252.75 -24.65 1279.83 103.55 1271.92 222.57 1225.54 315.12 1154.99 381.3 1067.4 417.24 984.71 433.79 936.34 434.1 934.15 431.94 987.27 436.68 1087.43 438.67 1210.45 454.09 1321.07 485.85Q1321.1 485.86 1321.1 485.86" opacity="0.94"></path><path d="M1263.19 619.75C1323.81 647.54 1332.94 671.32 1292.17 688.46 1212.6 702.23 1110.73 703.44 1007.4 687.78 917.15 664.43 853.61 622.92 820.87 567.84 819.35 519.46 841.51 478.47 876.97 462.75 924.44 488.06 968.72 557.63 1003.11 668.38 1033.21 795.72 1048.72 914.71 1050.54 988.39 1046.54 992.47 1032.43 921.54 1011.46 796.5 988.55 670.58 962.37 589.13 934.58 591.95 906.8 683.56 878.72 818.99 849.22 940.32 817.79 1006.6 781.35 990.1 737.2 903.03 687.22 773.66 625.96 643.42 553.03 545.61 475.81 495.62 391.63 497.23 307.75 535.54 235.87 601.4 180.77 668.33 153.35 720.89 157.16 762.18 195.78 778.58 265.66 773.87 348.63 756.45 434.68 727.29 503.52 694.02 533.58 657.27 518.81 623.27 458.19 595.49 362.7 567.7 259.9 547.44 173.87 531.78 117.49 512.65 106 491.26 138.03 460.53 205.58 417.08 296.34 354.92 393.93 270.81 489.18 175.42 568.89 68.6 627.97 -33.67 666.65 -108.39 685.77 -142.95 691.29 -121.9 683.66 -53.03 672.37 52.28 663.42 161.28 651 227.99 646.27 228.69 651.63 151.72 656.8 19.67 672.87 -121.38 700.65 -213.01 728.44 -215.87 766.63 -128.8 813.87 7.83 860.91 143.61 916.19 230.36 976.77 246.66 1033.87 193.36 1090.91 99.29 1141.37 0.88 1178.68 -80.94 1199.45 -117.56 1197.19 -106.46 1174.53 -54.32 1127.77 26.55 1061.44 117.76 992.79 215.66 926.95 302.93 879.77 374.43 868.11 438.26 895.41 487.59 962.52 526.23 1059.27 561.49 1167.7 591.97 1263.19 619.75Q1263.19 619.75 1263.19 619.75" opacity="0.11"></path><path d="M1206.1 402.26C1260.65 426.08 1277.57 436.46 1256.73 434.55 1204.05 433.05 1127.6 420.76 1040.38 401.33 951.67 387.63 873.06 375.15 811.44 372.42 768.91 388.78 746.64 426.97 741.07 491.96 751.43 577.7 769.97 681.06 790.66 787.51 816.69 874.91 837.99 928.83 851.58 932.24 865.03 884.93 869.22 792.95 863.78 679.19 857.8 581.85 842.95 526.24 819.13 534.59 795.32 608.81 763.66 720.25 724.72 832.35 685.25 918.11 637.73 949.8 583.01 923.67 528.14 848.86 467.61 744.4 404.88 634.9 347.47 535.01 294.75 462.57 253.16 421.68 227.52 411.13 221.55 424.26 239.29 449.89 276.1 487.89 333.35 523.03 404.6 548.83 474.36 574 537.26 586.21 580.75 585.38 592.4 583.17 570.65 569.91 516.1 546.09 435.71 522.27 347.95 489.03 268.48 446.32 205.03 402.24 171.14 346.7 169.4 280.25 196.66 213.18 249.68 138.82 319.13 64.11 399.45 1.78 480.49 -45.54 555.08 -66.21 623.11 -56.54 678.7 -12.35 721.91 62.73 755.52 147.43 780 230.52 798.8 287.89 812.4 296.56 825.12 251.34 839.84 156.41 853.28 35.12 871.3 -81.15 895.11 -155.38 918.93 -163.76 947.41 -103.35 978.89 3.17 1009.09 126.13 1039.7 231.67 1067.38 296.45 1089.86 310.51 1104.6 277.95 1107.7 215.36 1101.2 133.7 1079.81 58.58 1043 4.06 999.63 -29.71 946.83 -33.71 891.3 -13.36 846.65 26.07 814.98 77.77 805.17 132.75 824.37 193.45 871.8 249.07 944.44 295.48 1033.09 342.31 1125.68 378.43 1206.07 402.25Q1206.1 402.26 1206.1 402.26" opacity="0.83"></path><path d="M1148.31 180.9C1196.14 200.75 1217.97 218.13 1213.1 234.43 1184.68 252.59 1135.44 273.22 1072.47 299.61 1000.77 332.34 927.86 375.64 859.89 431.66 798.32 495.44 747.82 570.63 709.14 652.57 681.11 729.81 663.08 799.34 652.32 849.81 648.75 872.53 647.98 862.26 647.01 816.42 648.89 745.51 647.43 656.29 640.76 566.11 634.67 498.48 622.13 465.07 602.28 476.99 582.44 535.03 556.22 622.06 524.88 717.02 494.12 805.06 459.47 864.62 423.19 887 389.77 872.64 357.85 823.96 330.83 752.47 311 666.01 300.53 578.63 302.55 500.11 315.22 431.4 342.18 379.65 383.09 343.98 430.4 321.36 485.5 309.52 542.65 303.31 610.05 303 634.06 288.19 573.31 262.81 507.49 242.96 435.45 215.26 366.58 181.64 304.42 149.34 259.38 113.93 234.91 79.5 229.53 51.3 245.14 30.46 277.84 22.49 324.48 27.57 380.34 50.82 439.88 93.52 502.94 146.03 563.33 209.88 618.22 275.67 670.88 326.49 716.68 357.37 755.55 357.19 791.88 320.26 822.83 249.4 849.24 153.7 874.77 51.08 897.36 -39.96 917.21 -98 937.06 -109.92 953.23 -72.49 965.13 2.79 976.14 100.63 981.3 201.15 979.37 286.6 974.89 346.99 961.78 375.07 939.71 373.01 915.41 343.21 883.51 297.21 846.47 245.98 812.94 190.05 780.62 143.36 754.64 110.17 742.6 84.74 744.79 74.13 764.73 75.79 803.74 83.79 860.08 99.27 929.9 118.54 1006.43 139.67 1082.49 161.05 1148.31 180.9Q1148.31 180.9 1148.31 180.9" opacity="0.49"></path><path d="M1091.1 309.96C1156.31 341.72 1151.52 404.34 1089.22 493.27 988.91 581.92 876.35 685.24 777.01 770.61 690.41 805.96 627.74 770.87 584.05 658.73 549.35 527.21 519.11 424.19 487.36 419.59 455.6 529.65 425.33 680.25 405 788.91 393.66 824.28 406.76 770.14 451.74 668.03 509.46 540.57 588.33 428.46 665.37 348.03 704.39 278.41 696.31 230.72 631.1 198.96 520.48 167.21 409.87 154.39 332.82 168.98 293.77 194.37 307.29 256.92 357.17 342.76 432.26 403.25 514.59 423.7 586.23 365.06 659.34 233.12 714.73 69.65 746.49 -40.4 778.26 -35.8 783.37 80.08 765.3 234.88 732.31 404.68 684.26 374.71 756.66 314.21 856.98 280.31 980.45 278.2 1091.07 309.95Q1091.1 309.96 1091.1 309.96" opacity="0.11"></path><path d="M1033.57 582.9C1088.14 606.71 1102.62 643.03 1081.01 681.61 1032.04 710.96 963.99 725.15 892.17 708.38 815.94 666.16 748.15 587.87 694.82 487.96 643.44 404.84 604.86 353.73 581.04 362.08 557.23 436.3 550.43 542.34 560.54 641.62 572.59 721.33 603.2 754.11 648.22 744.54 688.83 704.58 731.61 646.2 763.13 589.48 767.27 527.49 743.14 480.32 688.57 456.5 608.19 432.69 525.05 434.48 455.89 455.19 399.19 470.64 370.65 491.85 368.07 500.59 381.95 478.94 411.32 420.9 445.53 323.73 484.37 206.99 518.97 91.3 542.79 17.08 566.6 8.73 577.38 69.49 579.81 170.07 586.88 287.44 594.68 391 612.01 464.43 645.81 512.41 699.62 535.4 773.77 547.33 860.39 550.01 953.19 559.08 1033.57 582.9Q1033.57 582.9 1033.57 582.9" opacity="0.58"></path><path d="M976.1 563.33C1041.31 595.08 1031.47 569.97 978.42 484.7 900.83 398.61 827.85 309.19 796.09 304.59 764.33 414.66 779.82 551.03 815.79 628.27 827.22 670.16 811.31 655.43 746.1 623.68 635.47 591.92 536.87 549.15 486.69 465.63 455.36 346.77 464.44 184.66 496.2 74.59 527.95 79.19 576.38 194.35 649.33 322.06 741.13 448.96 865.47 531.57 976.1 563.33Q976.1 563.33 976.1 563.33" opacity="0.44"></path></g></svg>